<?xml version="1.0" encoding="utf-8"?>
<!-- Generator: Adobe Illustrator 17.0.0, SVG Export Plug-In . SVG Version: 6.00 Build 0)  -->
<!DOCTYPE svg PUBLIC "-//W3C//DTD SVG 1.1//EN" "http://www.w3.org/Graphics/SVG/1.1/DTD/svg11.dtd">
<svg version="1.1" id="Camada_1" xmlns="http://www.w3.org/2000/svg" xmlns:xlink="http://www.w3.org/1999/xlink" x="0px" y="0px"
	 width="2315px" height="955.6914063px" viewBox="0 0 2315 955.6914063" enable-background="new 0 0 2315 955.6914063"
	 xml:space="preserve">
<g>
	<g>
		<path fill="#FA6115" d="M8.4536133,438.6142578c0-59.3583984,3.3818359-108.953125,10.1459961-148.796875
			c6.7641602-39.8320313,16.9101563-71.6542969,30.4379883-95.4550781
			c13.5283203-23.7880859,30.534668-40.6328125,51.0380859-50.5351563
			c20.4936523-9.8886719,44.4755859-14.8393555,71.9448242-14.8393555c18.4472656,0,35.559082,2.0307617,51.3452148,6.065918
			c15.7763672,4.0488281,29.3046875,9.9775391,40.5844727,17.7978516
			c11.2700195,7.8203125,20.1865234,17.2587891,26.7485352,28.3125
			c6.5527344,11.0546875,10.2421875,23.3251953,11.0683594,36.8115234
			c-0.4130859,10.2021484-2.5649414,22.9111328-6.456543,38.1513672
			c-3.9008789,15.2412109-12.2021484,30.3564453-24.9038086,45.3212891
			c-8.6088867-16.0429688-17.3232422-29.0029297-26.1337891-38.9042969
			c-8.8203125-9.8886719-17.3232422-17.7724609-25.519043-23.6630859
			c-8.2050781-5.8779297-16.2954102-9.8886719-24.2890625-12.0322266
			c-7.9936523-2.1298828-15.4785156-3.2080078-22.4443359-3.2080078c-11.0683594,0-20.8110352,2.6699219-29.2084961,7.9833984
			c-8.4067383,5.3144531-15.5839844,14.1005859-21.5219727,26.3330078
			c-5.9472656,12.2324219-10.7607422,28.0625-14.4501953,47.4765625
			c-3.6894531,19.4267578-6.1494141,43.4912109-7.3789063,72.2177734h156.1879883v94.6533203H97.6162109
			c0.8164063,35.2939453,2.862793,64.5722656,6.1489258,87.8339844
			c3.2763672,23.2617188,7.9936523,41.8496094,14.1430664,55.7490234
			c6.1489258,13.9121094,13.6240234,23.8007813,22.4443359,29.6787109
			c8.8105469,5.890625,19.3696289,8.8242188,31.6679688,8.8242188c14.3447266,0,30.7456055-5.3398438,49.1928711-16.0429688
			c18.4477539-10.6914063,36.0688477-29.6796875,52.8828125-56.9521484
			c11.8852539,18.1855469,19.3696289,35.03125,22.4443359,50.5351563c3.074707,15.515625,2.5556641,29.6787109-1.5371094,42.5126953
			c-3.2861328,11.7695313-8.9165039,22.3349609-16.9101563,31.6845703
			c-7.9941406,9.3632813-17.5253906,17.2460938-28.59375,23.6640625
			c-11.0683594,6.4169922-23.2705078,11.2294922-36.5874023,14.4384766c-13.3261719,3.2080078-26.9599609,4.8125-40.8916016,4.8125
			c-27.4692383,0-51.4511719-4.9384766-71.9448242-14.8398438c-20.503418-9.8886719-37.5097656-26.7333984-51.0380859-50.5351563
			c-13.527832-23.7880859-23.6738281-55.6103516-30.4379883-95.4541016
			C11.8354492,548.3828125,8.4536133,498.5117188,8.4536133,438.6142578z"/>
		<path fill="#FA6115" d="M441.3486328,749.0429688c-21.3203125,0-39.3544922-8.1464844-54.1123047-24.4648438
			c-14.7578125-16.3066406-27.5751953-44.9199219-38.4316406-85.8291016
			c-10.8671875-40.9101563-20.3984375-95.9814453-28.59375-165.2412109
			c-8.2050781-69.2480469-15.987793-156.8193359-23.3666992-262.7011719h92.2368164
			C394,288.3505859,398.5068359,353.8632813,402.609375,407.3310547
			c4.0927734,53.4804688,8.3007813,96.9335938,12.6054688,130.3476563
			c4.3046875,33.4267578,9.0126953,57.6289063,14.1435547,72.59375
			c5.1210938,14.9775391,10.9619141,22.4599609,17.5244141,22.4599609c6.5527344,0,12.8076172-10.6914063,18.7548828-32.0859375
			c5.9375-21.3818359,11.3759766-50.9355469,16.2949219-88.6367188
			c4.9199219-37.7001953,9.1181641-82.3447266,12.6064453-133.9570313
			c3.4775391-51.6005859,6.0429688-107.3496094,7.6865234-167.2460938h89.1621094
			c-0.4130859,78.609375-3.7949219,150.9404297-10.1464844,216.9785156
			c-6.3603516,66.0517578-15.7851563,122.8652344-28.2861328,170.4550781
			c-12.5087891,47.6025391-27.9785156,84.6259766-46.4257813,111.0966797S466.3486328,749.0429688,441.3486328,749.0429688z"/>
		<path fill="#FA6115" d="M828.7382813,749.0429688c-29.515625,0-57.9072266-5.6152344-85.1650391-16.8447266
			c-27.2675781-11.2304688-51.2490234-28.2001953-71.9453125-50.9365234
			c-20.7050781-22.7226563-37.2021484-51.1992188-49.5-85.4277344
			c-12.2988281-34.2167969-18.4472656-74.0605469-18.4472656-119.5195313c0-48.6542969,4.3037109-90.3652344,12.9130859-125.1337891
			c8.6083984-34.7548828,19.8789063-62.9677734,33.8203125-84.6259766
			c13.9316406-21.6572266,29.6113281-37.5625,47.0410156-47.7275391
			c17.4189453-10.1513672,34.7421875-15.2402344,51.9599609-15.2402344c20.9072266,0,39.2490234,4.4121094,55.0341797,13.2353516
			c15.7763672,8.8232422,28.9970703,20.5927734,39.6621094,35.2939453
			c10.6552734,14.7148438,18.5439453,31.8222656,23.6748047,51.3369141
			c5.1210938,19.5273438,7.6855469,39.9824219,7.6855469,61.3642578c0,22.4599609-3.5927734,45.5966797-10.7607422,69.3847656
			c-7.1767578,23.8017578-18.1396484,45.8603516-32.8974609,66.1767578
			c-17.2177734,22.9990234-37.1064453,39.9824219-59.6464844,50.9365234
			c-22.5507813,10.9667969-44.8886719,18.3232422-67.0253906,22.0585938
			c10.2412109,30.2558594,26.3349609,51.3115234,48.2705078,63.1933594
			c21.9248047,11.8818359,47.0410156,17.8232422,75.3261719,17.8232422V749.0429688z M692.8427734,481.1279297
			c28.2861328-4.2744141,50.4228516-15.5039063,66.4111328-33.6904297
			c15.9873047-18.1728516,24.1826172-44.6435547,24.5957031-79.4121094c0-18.7119141-2.7666016-35.2939453-8.3007813-49.7324219
			s-13.6337891-21.6572266-24.2890625-21.6572266c-8.609375,0-16.4013672,4.9501953-23.3671875,14.8388672
			c-6.9746094,9.9013672-13.1240234,23.1367188-18.4472656,39.7060547
			c-5.3320313,16.5820313-9.4345703,35.5703125-12.2978516,56.9521484
			c-2.8730469,21.3945313-4.3046875,43.5917969-4.3046875,66.578125V481.1279297z"/>
		<path fill="#FA6115" d="M1054.4091797,732.1982422V452.2509766c0-50.7988281-4.1699219-89.4394531-12.5-115.9091797
			c-8.3398438-26.4707031-21.2431641-39.7060547-38.7109375-39.7060547c-6.9169922,0-12.0957031,5.890625-15.5546875,17.6464844
			c-3.4589844,11.7695313-5.1787109,33.4267578-5.1787109,64.9736328v352.9423828h-89.1630859V373.640625
			c0-62.5664063,9.0029297-106.546875,27.0185547-131.9521484c18.0048828-25.3925781,45.4355469-38.1015625,82.2734375-38.1015625
			c18.8310547,0,36.2216797,4.5498047,52.1904297,13.6367188c15.9589844,9.0986328,30.0830078,21.9335938,42.3613281,38.5029297
			c10.6464844-14.9658203,23.3291016-27.3984375,38.0673828-37.2998047
			c14.7392578-9.8886719,30.6972656-14.8398438,47.8964844-14.8398438c19.6484375,0,37.1445313,4.6875,52.4980469,14.0371094
			c15.34375,9.3632813,28.2373047,23.9394531,38.6816406,43.7167969
			c10.4345703,19.7910156,18.4189453,45.3212891,23.9433594,76.6044922
			c5.5244141,31.2841797,8.2919922,68.859375,8.2919922,112.7011719v281.5517578h-89.1630859V450.6464844
			c0-54.5458984-2.7480469-93.8505859-8.2333984-117.9150391c-5.4960938-24.0644531-13.9316406-36.0957031-25.3076172-36.0957031
			c-6.5048828,0-11.9912109,2.9453125-16.46875,8.8232422c-4.4775391,5.890625-8.1279297,13.3730469-10.9716797,22.4599609
			c-2.8447266,9.0996094-5.1884766,19.2509766-7.0146484,30.4814453
			c-1.8349609,11.2294922-3.1611328,22.1962891-3.9677734,32.8876953
			c-0.8164063,10.703125-1.3261719,20.5927734-1.5273438,29.6787109
			c-0.2021484,9.0996094-0.2978516,16.0429688-0.2978516,20.8564453v290.375H1054.4091797z"/>
		<path fill="#FA6115" d="M1444.8701172,203.5869141c20.4941406,0,40.0654297,6.015625,58.7246094,18.0478516
			c18.6484375,12.0322266,35.1455078,29.5546875,49.5,52.5410156
			c14.3447266,22.9980469,25.8261719,51.3369141,34.4355469,85.0263672
			c8.6083984,33.6904297,12.9130859,72.1923828,12.9130859,115.5087891c0,43.8544922-4.2949219,82.7578125-12.875,116.7109375
			c-8.5800781,33.9658203-20.0234375,62.5673828-34.3193359,85.8291016
			c-14.296875,23.2626953-30.7460938,41.0478516-49.3378906,53.3427734
			c-18.5908203,12.3076172-38.0957031,18.4492188-58.5224609,18.4492188c-4.8994141,0-9.7041016-0.125-14.4023438-0.4013672
			c-4.6982422-0.2626953-9.2910156-0.6640625-13.7871094-1.203125v144.3857422h-89.1630859V373.640625
			c0-31.0078125,2.6621094-57.3525391,7.9941406-79.0107422c5.3232422-21.6582031,13.1152344-39.3046875,23.3671875-52.9414063
			c10.2421875-13.6357422,22.5400391-23.3876953,36.8945313-29.2783203
			C1410.6367188,206.5322266,1426.8261719,203.5869141,1444.8701172,203.5869141z M1417.1992188,643.9375
			c3.2568359,4.2861328,7.3310547,7.1064453,12.2207031,8.4472656c4.8818359,1.3408203,10.1757813,2.0058594,15.8828125,2.0058594
			c18.7353516,0,34.4160156-14.0625,47.0410156-42.2001953s18.9365234-73.5595703,18.9365234-136.2763672
			c0-27.875-1.9404297-52.7910156-5.8027344-74.7744141c-3.8720703-21.9716797-8.8583984-40.4580078-14.9697266-55.4736328
			c-6.1103516-15.0019531-13.0380859-26.3955078-20.7724609-34.1660156
			c-7.7441406-7.7705078-15.4785156-11.65625-23.2128906-11.65625c-6.9267578,0-12.3271484,1.7421875-16.1894531,5.2265625
			c-3.8720703,3.484375-6.8212891,8.5849609-8.8583984,15.2783203c-2.0371094,6.7050781-3.2666016,15.0146484-3.6699219,24.9287109
			c-0.4042969,9.9140625-0.6054688,21.2949219-0.6054688,34.1542969V643.9375z"/>
		<path fill="#FA6115" d="M1720.9619141,634.3369141c0,8.0214844,2.4121094,13.5107422,7.2451172,16.4433594
			c4.8232422,2.9453125,13.2773438,5.2138672,25.3457031,6.8183594v91.4443359
			c-42.2275391,0-73.0791016-9.3496094-92.5449219-28.0751953c-19.4755859-18.7119141-29.2080078-49.1933594-29.2080078-91.4443359
			V77.6508789h89.1621094V634.3369141z"/>
		<path fill="#FA6115" d="M1849.4755859,211.6083984v263.578125c0,62.6923828,6.3505859,108.2265625,19.0625,136.6152344
			c12.7011719,28.4003906,28.6894531,42.5888672,47.9628906,42.5888672c4.0927734,0,7.8876953-1.203125,11.3759766-3.6103516
			c3.4775391-2.40625,6.4560547-6.6923828,8.9160156-12.859375c2.4599609-6.1660156,4.4003906-14.6005859,5.8417969-25.3173828
			c1.4316406-10.703125,2.1523438-24.1015625,2.1523438-40.1816406V211.6083984h89.1621094v366.578125
			c0,31.0205078-2.7666016,57.3535156-8.3007813,79.0117188c-5.5341797,21.6572266-13.3271484,39.3046875-23.3671875,52.9404297
			c-10.0498047,13.6367188-22.3486328,23.5380859-36.8945313,29.6796875
			c-14.5566406,6.1542969-30.8515625,9.2246094-48.8857422,9.2246094c-20.5039063,0-40.1806641-6.015625-59.0322266-18.0478516
			c-18.8603516-12.0322266-35.4628906-29.6796875-49.8076172-52.9414063
			c-14.3544922-23.2626953-25.8261719-51.7382813-34.4345703-85.4287109
			c-8.609375-33.6894531-12.9140625-72.4550781-12.9140625-116.3105469V211.6083984H1849.4755859z"/>
		<path fill="#FA6115" d="M2134.7890625,340.7529297c0,9.6259766,2.4589844,18.0478516,7.3789063,25.2675781
			c4.9189453,7.2197266,11.3759766,13.7744141,19.3691406,19.6523438
			c7.9941406,5.890625,17.0068359,11.5058594,27.0566406,16.8447266
			c10.0400391,5.3525391,20.3876953,11.2304688,31.0527344,17.6474609
			c11.0683594,6.9560547,22.03125,14.9775391,32.8984375,24.0644531
			c10.8564453,9.0986328,20.5996094,20.1914063,29.2080078,33.2890625
			c8.609375,13.109375,15.5751953,28.3505859,20.9072266,45.7216797
			c5.3232422,17.3837891,7.9941406,38.1015625,7.9941406,62.1660156c0,20.8554688-3.1806641,41.1845703-9.53125,60.9628906
			c-6.3603516,19.7900391-15.3730469,37.2988281-27.0566406,52.5400391
			c-11.6835938,15.2402344-25.7304688,27.4101563-42.1210938,36.4970703
			c-16.4013672,9.0996094-34.6464844,13.6367188-54.7275391,13.6367188c-9.0214844,0-20.3974609-0.7900391-34.1279297-2.3818359
			c-13.7392578-1.5908203-27.2675781-4.9130859-40.5839844-9.9511719
			c-13.3261719-5.0380859-25.3173828-12.1953125-35.9726563-21.4697266
			c-10.6650391-9.2744141-17.4287109-21.6074219-20.2919922-36.9863281
			c-3.2763672-18.0478516-1.4414063-35.7578125,5.5341797-53.1416016
			c6.9658203-17.3710938,18.6494141-30.0800781,35.0498047-38.1015625
			c5.3232422,8.0214844,11.578125,16.0429688,18.7548828,24.0634766
			c7.1679688,8.0214844,14.7578125,15.2412109,22.7519531,21.6582031s16.2949219,11.6308594,24.9042969,15.6416016
			c8.6083984,4.0107422,17.2177734,6.0166016,25.8261719,6.0166016c15.5742188,0,27.5654297-6.1542969,35.9726563-18.4746094
			c8.3974609-12.3203125,12.6054688-28.125,12.6054688-47.4140625c0-11.2548828-2.3632813-21.15625-7.0712891-29.7294922
			c-4.7177734-8.5732422-10.4541016-16.0673828-17.2177734-22.4970703s-13.9414063-11.9199219-21.5214844-16.4814453
			c-7.5908203-4.5498047-14.4511719-8.6982422-20.5996094-12.4589844
			c-13.5283203-8.0332031-26.8544922-16.46875-39.9697266-25.3046875
			c-13.125-8.8359375-24.8076172-19.2763672-35.0498047-31.3339844
			c-10.2519531-12.0566406-18.5537109-26.3828125-24.9042969-43.0019531
			c-6.3603516-16.6064453-9.53125-36.9609375-9.53125-61.0751953c0-17.1337891,2.6611328-33.8662109,7.9941406-50.2089844
			c5.3222656-16.34375,13.2207031-31.0712891,23.6738281-44.2060547
			c10.4541016-13.1220703,23.3671875-24.1015625,38.7392578-32.9501953
			c15.3730469-8.8359375,33.0996094-14.0625,53.1904297-15.6669922c62.3076172,0,103.09375,16.5820313,122.3681641,49.7324219
			c9.0117188,15.5166016,11.4716797,33.5654297,7.3789063,54.1445313
			c-4.1025391,20.5927734-14.5566406,38.9042969-31.3613281,54.9472656
			c-11.0683594-19.7783203-25.0087891-35.6953125-41.8134766-47.7275391
			c-16.8144531-12.0322266-33.8203125-18.0478516-51.0380859-18.0478516c-13.5283203,0-24.5966797,4.2861328-33.2050781,12.8339844
			C2139.0927734,318.0302734,2134.7890625,328.4580078,2134.7890625,340.7529297z"/>
	</g>
</g>
</svg>
